<?xml version="1.0" encoding="utf-8" ?><svg xmlns="http://www.w3.org/2000/svg" xmlns:xlink="http://www.w3.org/1999/xlink" width="1280" height="832" viewBox="0 0 1280 832"><path fill="#E5C3C1" d="M714.235 327.766C708.388 326.349 695.296 322.124 694.148 313.924C693.541 309.593 698.165 310.202 700.044 308.232C699.276 306.502 699.083 306.341 699.428 304.578C708.48 294.428 719.967 301.836 728.142 308.669C729.029 310.232 734.223 327.288 734.095 330.14L733.193 331.389C729.907 331.524 728.965 329.795 726.814 327.516C721.576 327.975 719.531 328.429 714.235 327.766Z"/><path fill="#381F1D" d="M728.142 308.669C729.029 310.232 734.223 327.288 734.095 330.14L733.193 331.389C729.907 331.524 728.965 329.795 726.814 327.516C721.576 327.975 719.531 328.429 714.235 327.766C717.012 323.844 718.663 323.294 722.902 321.211C721.508 319.347 718.57 313.844 720.365 311.86C722.596 311.636 724.181 312.593 726.3 313.497C727.598 312.344 727.631 310.661 728.142 308.669Z"/><path fill="#5F3A37" d="M722.902 321.211C725.473 323.986 728.117 323.152 729.518 325.346C728.529 326.706 728.352 326.718 726.814 327.516C721.576 327.975 719.531 328.429 714.235 327.766C717.012 323.844 718.663 323.294 722.902 321.211Z"/><path fill="#E5C3C1" d="M615.034 622.053C616.39 623.505 616.368 625.723 616.731 627.626C619.983 644.692 608.577 652.057 593.003 654.2C591.856 653.973 592.209 654.012 591.161 653.262C589.49 648.813 591.061 638.569 592.221 633.9C598.935 626.036 605.516 626.182 615.034 622.053Z"/><path fill="#E5C3C1" d="M131.486 712.38C133.529 713.647 134.223 715.42 135.339 717.531C155.367 720.505 155.298 734.977 151.117 751.278C129.773 744.418 127.936 738.606 133.968 718.04L131.486 712.38Z"/><path fill="#E5C3C1" d="M529.678 348.892C530.466 348.819 531.256 348.758 532.046 348.709C537.381 348.388 541.45 349.503 545.309 353.095C549.637 357.124 554.895 365.66 549.5 370.722C546.71 373.34 542.166 372.637 538.67 372.543C527.498 369.97 525.981 367.949 522.058 357.661C520.3 353.048 518.996 355.07 516.118 352.556L516.517 352.065C523.987 351.599 522.968 351.199 529.678 348.892Z"/><path fill="#E5C3C1" d="M1020.67 437.142C1020.4 436.728 1021.99 447.096 1022.04 447.521C1022.49 451.567 1021.25 455.619 1018.6 458.711C1013.43 464.84 1004.58 467.35 996.889 467.994C994.571 465.116 994.77 461.744 995.238 458.369C996.646 448.138 1002.22 442.06 1012.45 440.23C1015.26 439.729 1018.42 438.966 1020.67 437.142Z"/><path fill="#E5C3C1" d="M287.037 683.348C290.2 683.183 293.461 683.43 296.589 683.83C302.324 684.563 313.282 695.439 312.133 701.168C309.304 704.126 302.42 704.953 298.272 705.795C294.931 705.758 291.646 704.93 288.687 703.378C283.134 700.467 280.992 696.17 279.225 690.516L275.53 689.61L275.861 688.916C275.079 688.819 274.429 688.739 273.65 688.601C282.998 688.281 279.198 685.504 287.037 683.348Z"/><path fill="#E5C3C1" d="M294.527 364.914C294.55 365.042 294.574 365.17 294.597 365.298C293.995 372.98 297.153 381.36 292.035 388.175C287.312 394.463 280.347 395.391 273.399 396.573C269.135 388.445 276.294 374.367 284.354 371.094C289.458 369.021 291.48 369.749 294.527 364.914Z"/><path fill="#E5C3C1" d="M181.195 580.5C180.281 575.757 177.674 573.959 178.946 568.487L180.014 567.938C183.344 568.771 187.134 572.598 189.702 574.984C196.668 571.994 204.932 577.304 203.198 583.446C195.658 592.919 181.625 602.429 181.198 582.367C181.186 581.745 181.185 581.122 181.195 580.5Z"/><path fill="#381F1D" d="M181.195 580.5C180.281 575.757 177.674 573.959 178.946 568.487L180.014 567.938C183.344 568.771 187.134 572.598 189.702 574.984C187.983 576.901 185.567 579.937 183.364 580.992C182.309 580.827 182.186 580.871 181.195 580.5Z"/><path fill="#E5C3C1" d="M407.904 594.493C415.282 593.752 417.672 595.151 424.409 597.911C419.827 606.935 417.106 609.675 406.695 609.435C398.639 607.653 397.27 605.5 387.888 604.719C395.425 601.715 401.336 596.703 407.904 594.493Z"/><path fill="#E5C3C1" d="M71.8959 420.185C80.825 419.868 83.552 422.721 91.0304 427.733C85.098 433.398 83.3995 434.862 75.3793 436.003C67.5729 435.859 66.3354 431.389 56.8991 428.574C57.4103 427.388 60.4981 427.749 61.3281 427.238C66.669 423.949 65.5933 422.706 71.8959 420.185Z"/><path fill="#E5C3C1" d="M747.745 548.586C748.39 546.16 748.531 544.543 750.377 542.919L751.459 543.079C753.838 547.537 752.529 552.955 753.123 557.436C757.005 569.882 739.699 571.532 737.289 562.3C736.373 558.792 739.451 555.214 741.494 552.542C743.551 551.237 745.672 549.846 747.745 548.586Z"/><path fill="#5F3A37" d="M747.745 548.586C748.39 546.16 748.531 544.543 750.377 542.919L751.459 543.079C753.838 547.537 752.529 552.955 753.123 557.436C748.177 555.967 745.762 555.505 741.494 552.542C743.551 551.237 745.672 549.846 747.745 548.586Z"/><path fill="#E5C3C1" d="M801.211 471.82C802.324 471.738 802.463 471.887 803.545 472.236C807.365 477.156 802.886 486.048 799.489 490.143C796.977 493.172 794.821 493.957 791.266 495.227C782.297 482.994 789.773 476.551 801.211 471.82Z"/><path fill="#E5C3C1" d="M472.014 700.719C470.994 702.516 468.924 704.618 466.568 704.73C460.62 705.014 452.763 695.284 458.838 690.702C462.209 688.16 467.939 689.184 472.007 689.804C475.022 690.268 478.601 690.721 481.547 691.3C478.352 694.141 474.468 697.299 472.014 700.719Z"/><path fill="#5F3A37" d="M472.007 689.804C475.022 690.268 478.601 690.721 481.547 691.3C478.352 694.141 474.468 697.299 472.014 700.719C471.259 698.987 471.634 697.654 470.397 696.334C469.5 695.377 469.022 694.365 468.41 693.208C468.879 691.292 469.918 691.201 472.007 689.804Z"/><path fill="#E5C3C1" d="M648.515 544.796C659.62 548.115 667.325 552.393 666.634 565.132C665.86 565.125 665.085 565.103 664.311 565.067C650.135 564.365 647.371 557.562 648.515 544.796Z"/><path fill="#E5C3C1" d="M400.819 425.366C415.952 426.925 414.7 438.206 411.819 449.29L410.942 450.007C408.473 449.066 404.413 444.87 402.884 442.629C399.006 436.94 399.617 431.765 400.819 425.366Z"/><path fill="#E5C3C1" d="M127.148 512.112L128.361 512.167L128.701 513.145C124.696 525.191 122.329 528.264 109.274 530.558C108.525 530.16 107.406 529.825 107.368 528.83C106.898 516.648 117.501 513.578 127.148 512.112Z"/><path fill="#E5C3C1" d="M37.4463 304.714L39.1433 305.861C44.8367 316.508 35.6677 324.868 27.9062 330.732L27.2737 331.768L26.6862 331.324C24.295 318.926 27.7565 312.002 37.4463 304.714Z"/><path fill="#E5C3C1" d="M174.804 335.229C188.37 339.519 187.826 348.544 184.865 359.913L183.911 360.06C174.067 355.475 173.021 344.712 174.804 335.229Z"/><path fill="#E5C3C1" d="M895.502 365.832L896.829 366.342L897.195 367.476C895.919 377.816 887.615 382.397 878.063 382.823C876.352 381.983 876.615 381.096 876.358 379.445C879.646 370.914 886.741 366.727 895.502 365.832Z"/><path fill="#E5C3C1" d="M755.573 128.086C769.848 128.093 770.3 138.08 770.316 149.188C768.13 149.135 761.532 145.333 760.036 143.49C755.129 137.446 755.218 135.253 755.573 128.086Z"/><path fill="#E5C3C1" d="M17.7097 550.975C15.5894 550.394 12.5361 549.523 11.0846 547.826C10.0356 546.615 9.52372 545.03 9.66631 543.434C10.0284 539.499 14.2306 536.964 17.9905 537.546C21.5962 538.104 23.4552 540.556 25.3924 543.359C26.683 545.785 28.1994 548.029 28.392 550.692C26.4378 554.302 21.0825 551.892 17.7097 550.975Z"/><path fill="#5F3A37" d="M25.3924 543.359C26.683 545.785 28.1994 548.029 28.392 550.692C26.4378 554.302 21.0825 551.892 17.7097 550.975C20.2449 548.054 22.5684 545.962 25.3924 543.359Z"/><path fill="#E5C3C1" d="M113.558 267.814C114.94 271.316 116.692 275.364 117.534 278.979C118.419 287.535 112.996 295.083 105.616 286.264C103.682 283.953 105.385 279.605 106.28 276.783C107.722 273.972 111.259 270.105 113.558 267.814Z"/><path fill="#5F3A37" d="M113.558 267.814C114.94 271.316 116.692 275.364 117.534 278.979L114.252 276.857C112.21 276.841 111.667 277.411 109.959 278.507C108.061 278.52 108.063 278.058 106.28 276.783C107.722 273.972 111.259 270.105 113.558 267.814Z"/><path fill="#E5C3C1" d="M272.788 455.858C271.534 453.278 269.097 448.772 269.037 446.035C268.919 440.728 277.901 438.211 281.071 442.415C283.085 445.085 282.538 448.454 282.165 451.442C281.571 454.473 280.95 458.18 280.123 461.098C276.879 459.403 274.972 458.746 272.788 455.858Z"/><path fill="#5F3A37" d="M272.788 455.858C275.742 452.377 277.769 452.318 282.165 451.442C281.571 454.473 280.95 458.18 280.123 461.098C276.879 459.403 274.972 458.746 272.788 455.858Z"/><path fill="#E5C3C1" d="M279.218 573.264C276.569 572.52 274.019 571.743 272.054 569.798C271.046 566.814 274.524 561.724 276.425 557.682L277.715 557.511C281.167 559.188 284.368 563.719 286.718 566.827C288.266 570.093 288.757 571.556 289.776 575.047C286.449 574.557 282.424 574.076 279.218 573.264Z"/><path fill="#5F3A37" d="M279.218 573.264C281.683 569.705 283.012 568.752 286.718 566.827C288.266 570.093 288.757 571.556 289.776 575.047C286.449 574.557 282.424 574.076 279.218 573.264Z"/><path fill="#E5C3C1" d="M368.339 501.953L368.821 502.062L369.356 503.155C368.692 514.638 366.681 517.421 355.788 521.541C349.209 513.643 361.56 504.555 368.339 501.953Z"/><path fill="#E5C3C1" d="M90.567 614.904C101.289 617.663 88.2177 632.949 83.7874 636.556C82.8556 637.149 83.3773 636.937 82.0817 636.851C79.1036 626.6 83.4669 621.038 90.567 614.904Z"/><path fill="#E5C3C1" d="M501.364 563.565C504.598 552.422 507.022 551.895 516.657 556.76C514.645 561.152 513.569 563.321 509.987 566.61C507.82 568.434 505.155 571.552 502.319 570.588C500.983 568.449 501.34 566.199 501.364 563.565Z"/><path fill="#5F3A37" d="M501.364 563.565C504.311 562.978 505.011 563.214 507.532 564.887C508.363 565.443 509.182 566.017 509.987 566.61C507.82 568.434 505.155 571.552 502.319 570.588C500.983 568.449 501.34 566.199 501.364 563.565Z"/><path fill="#E5C3C1" d="M180.065 439.215C182.516 434.622 185.502 428.727 191.945 431.286C197.678 436.208 190.704 442.146 186.535 444.917L177.746 448.313C178.399 444.945 179.088 442.515 180.065 439.215Z"/><path fill="#5F3A37" d="M180.065 439.215C183.36 441.039 184.037 442.065 186.535 444.917L177.746 448.313C178.399 444.945 179.088 442.515 180.065 439.215Z"/><path fill="#E5C3C1" d="M24.9606 196.381C30.3806 196.081 42.6615 196.741 44.7216 202.869C44.1941 205.091 44.6539 204.3 42.9839 205.857C37.4257 206.77 26.7974 205.769 23.8622 200.211C23.7462 197.615 23.4788 198.636 24.9606 196.381Z"/><path fill="#381F1D" d="M1159.83 188.055C1174.35 191.754 1177.76 183.925 1190.26 196.093C1209.51 187.973 1209.99 195.622 1227.38 198.249C1229.18 203.935 1224.46 218.878 1223.96 225.105C1207.05 230.621 1207.14 232.768 1194.21 245.142C1191.22 248.002 1186.41 251.003 1183.51 254.284C1182.46 264.38 1179.51 265.527 1181.48 275.076L1177.59 280.691C1179.45 287.749 1181.18 293.233 1181.56 300.541L1187.27 303.576C1188.29 305.512 1189.47 307.591 1190.3 309.601C1183.16 312.237 1184.62 314.942 1181.62 317.043C1178.23 312.282 1177.64 308.268 1177.44 302.374L1172.11 295.775C1172.76 292.687 1173.4 289.359 1174.29 286.354C1171.05 283.711 1169.67 282.451 1167.73 278.651C1167.76 276.211 1168.09 270.411 1167.35 268.418C1162.81 268.661 1147.1 296.282 1145.64 302.109C1144.13 308.133 1146.83 306.78 1142.33 313.403L1142.63 322.328C1140.37 322.038 1139.8 321.695 1137.73 320.795L1136.99 318.369C1133.12 317.014 1125.63 332.407 1124.13 335.911C1124.61 342.472 1118.2 345.227 1113.39 348.29C1114.55 350.971 1117.85 357.45 1117.15 359.845C1116.68 360.171 1116.22 360.505 1115.76 360.847C1110.8 364.58 1113.59 364.207 1111.72 367.211C1102.51 382.006 1085.21 363.147 1081.39 358.428C1078.17 365.698 1070.68 380.078 1061.41 381.543C1056.38 382.338 1057.12 377.556 1054.7 375.255C1053.24 376.213 1050.73 378.134 1049.08 376.922C1039.3 369.741 1052.46 350.997 1056.63 344.023C1055.38 343.953 1054.13 343.874 1052.88 343.784C1041.08 342.928 1036.33 339.302 1028.77 330.553C1038.61 324.056 1033.32 326.357 1034.62 319.01C1036.16 310.322 1051.52 314.768 1057.41 317.116C1057.07 313.626 1057.3 308.528 1057.36 304.907L1063.25 303.065C1069.73 291.86 1078.26 298.043 1086.87 302.952C1093.91 300.708 1097.7 301.934 1104.51 304.161C1109.76 302.217 1114.89 300.715 1119.58 297.721C1120.46 294.041 1120.8 292.625 1123.41 290.07C1121.35 289.257 1120.49 289.07 1119.09 287.327C1117.35 280.422 1124.41 279.93 1129.41 281.521L1130.15 281.841C1133.51 282.662 1139.64 280.97 1143.21 280.211C1156.22 271.636 1152.56 271.483 1162.13 260.881C1162.17 259.521 1162.32 254.102 1162.74 253.207C1166.95 244.091 1176.48 254.716 1171.4 239.18C1168.02 234.431 1169.25 225.255 1166.69 217.59L1174.73 213.834C1161.62 208.604 1146.95 206.264 1132.42 200.512C1133.84 196.049 1135.24 193.869 1136.25 188.841C1142.64 188.077 1150.31 198.767 1154.84 196.185L1155.91 190.89C1157.13 189.131 1157.87 188.873 1159.83 188.055ZM1128.08 298.221C1116.53 301.6 1114.65 303.095 1105.12 310.29L1105.07 317.221C1114.61 316.678 1122.9 314.537 1124.66 326.436C1126.08 323.457 1126.84 319.874 1127.66 316.649C1135.25 312.011 1139.83 304.673 1143.22 296.431C1144.63 293.008 1143.79 290.497 1142.97 287.001C1134.5 290.202 1133.18 290.801 1128.08 298.221Z"/><path fill="#E5C3C1" d="M1063.25 303.065C1069.73 291.86 1078.26 298.043 1086.87 302.952C1091.31 309.365 1096.07 308.405 1096.3 314.941C1096.33 315.913 1096.48 316.339 1096.73 317.255C1098.81 318.372 1102.54 317.531 1105.07 317.221C1114.61 316.678 1122.9 314.537 1124.66 326.436C1124.04 330.197 1122.97 332.297 1124.13 335.911C1124.61 342.472 1118.2 345.227 1113.39 348.29C1114.55 350.971 1117.85 357.45 1117.15 359.845C1116.68 360.171 1116.22 360.505 1115.76 360.847C1110.8 364.58 1113.59 364.207 1111.72 367.211C1102.51 382.006 1085.21 363.147 1081.39 358.428C1078.17 365.698 1070.68 380.078 1061.41 381.543C1056.38 382.338 1057.12 377.556 1054.7 375.255C1053.24 376.213 1050.73 378.134 1049.08 376.922C1039.3 369.741 1052.46 350.997 1056.63 344.023C1055.38 343.953 1054.13 343.874 1052.88 343.784C1041.08 342.928 1036.33 339.302 1028.77 330.553C1038.61 324.056 1033.32 326.357 1034.62 319.01C1036.16 310.322 1051.52 314.768 1057.41 317.116C1057.07 313.626 1057.3 308.528 1057.36 304.907L1063.25 303.065Z"/><path fill="#905B58" d="M1075.8 323.573C1078.31 325.082 1079.12 324.099 1081.34 326.831C1082.91 328.763 1086.36 329.699 1088.77 330.386L1088.43 330.966C1085.89 335.349 1087.22 338.488 1084.64 341.499C1081.56 345.109 1084.49 343.343 1084.19 346.689C1082.37 346.825 1078.93 345.221 1077.07 344.486C1074.96 345.947 1075.43 345.502 1072.48 345.557L1071.01 347.405L1070.31 347.095C1068.87 343.971 1068.25 342.259 1067.63 338.87C1066.39 332.045 1068.1 331.71 1072.25 327.026C1074.13 327.631 1074.67 327.863 1076.62 328.021C1076.89 324.709 1075.85 328.193 1075.8 323.573Z"/><path fill="#E5C3C1" d="M1123.41 290.07C1121.35 289.257 1120.49 289.07 1119.09 287.327C1117.35 280.422 1124.41 279.93 1129.41 281.521C1125.64 283.841 1125.47 283.19 1125.73 287.972C1124.83 289.081 1124.7 289.349 1123.41 290.07Z"/><path fill="#5F3A37" d="M1130.15 281.841C1133.51 282.662 1139.64 280.97 1143.21 280.211C1140.42 284.426 1137.22 289.21 1131.83 285.784C1131.28 284.466 1130.72 283.152 1130.15 281.841Z"/><path fill="#E5C3C1" d="M1113.24 176.317C1117.36 176.081 1122.72 175.578 1126.71 176.08C1136.49 177.316 1152.01 182.034 1159.83 188.055C1157.87 188.873 1157.13 189.131 1155.91 190.89L1154.84 196.185C1150.31 198.767 1142.64 188.077 1136.25 188.841C1135.24 193.869 1133.84 196.049 1132.42 200.512C1129.99 203.785 1128.15 205.372 1125.19 208.092C1130.03 210.579 1137.66 213.752 1141.64 216.593L1142 216.843C1143.59 220.49 1144.56 223.159 1145.81 226.943C1151.24 223.745 1160.64 220.084 1166.69 217.59C1169.25 225.255 1168.02 234.431 1171.4 239.18C1165.39 240.189 1157.85 240.6 1152.25 242.548C1148.16 243.969 1143.92 248.204 1139.54 249.275C1131.69 251.501 1123.85 251.002 1115.91 252.673C1110.8 253.75 1105.38 258.798 1100.91 260.335C1091.42 263.603 1080.58 264.462 1071.66 269.198C1063.11 273.352 1058.71 275.815 1050.88 281.106C1047.05 283.486 1041.59 286.756 1038.1 289.457C1034.42 292.313 1029.82 299.879 1026.44 302.926C1018.44 310.129 1008.64 316.444 1002.17 325.365C998.401 330.563 996.637 337.91 993.22 343.562C990.013 341.112 986.341 342.508 982.535 343.151C985.936 334.447 984.672 325.185 991.523 318.331C1006.5 303.353 1024.63 294.132 1040.18 279.396C1037.45 280.096 1034.44 281.265 1031.76 282.233C1028.72 279.232 1026.29 278.517 1023.35 274.376C1024.07 270.63 1024.31 267.956 1024.63 264.138C1022.4 262.656 1019.68 260.824 1018.46 258.457C1014.65 251.113 1000.68 249.174 993.228 249.106C982.919 249.011 979.174 246.288 973.735 238.073L974.844 231.61C979.684 232.902 982.958 232.451 987.308 233.424C996.581 244.32 1017.3 244.019 1030.48 248.296C1037 250.411 1045.31 252.132 1052.08 252.683L1060.68 253.32C1066.53 248.54 1068.47 245.532 1075.47 242.897C1075.09 242.542 1073.59 241.049 1073.41 240.902C1071.29 240.155 1070.63 232.603 1069.52 231.959C1055.8 223.973 1078.27 214.516 1084.19 212.514C1078.71 209.666 1066.16 201.381 1070.29 192.724C1071.77 189.623 1075.84 189.535 1079.01 188.858C1079.67 187.634 1078.97 184.287 1078.76 182.688C1084.9 182.393 1088.31 182.567 1093.71 185.935C1095.52 181.991 1096.11 180.672 1100.1 178.655C1105.24 176.766 1107.78 176.349 1113.24 176.317Z"/><path fill="#5F3A37" d="M1145.81 226.943C1151.24 223.745 1160.64 220.084 1166.69 217.59C1169.25 225.255 1168.02 234.431 1171.4 239.18C1165.39 240.189 1157.85 240.6 1152.25 242.548C1148.16 243.969 1143.92 248.204 1139.54 249.275C1131.69 251.501 1123.85 251.002 1115.91 252.673C1110.8 253.75 1105.38 258.798 1100.91 260.335C1091.42 263.603 1080.58 264.462 1071.66 269.198C1063.11 273.352 1058.71 275.815 1050.88 281.106C1047.05 283.486 1041.59 286.756 1038.1 289.457C1034.42 292.313 1029.82 299.879 1026.44 302.926C1018.44 310.129 1008.64 316.444 1002.17 325.365C998.401 330.563 996.637 337.91 993.22 343.562C990.013 341.112 986.341 342.508 982.535 343.151C985.936 334.447 984.672 325.185 991.523 318.331C1006.5 303.353 1024.63 294.132 1040.18 279.396C1037.45 280.096 1034.44 281.265 1031.76 282.233C1028.72 279.232 1026.29 278.517 1023.35 274.376C1024.07 270.63 1024.31 267.956 1024.63 264.138C1022.4 262.656 1019.68 260.824 1018.46 258.457C1014.65 251.113 1000.68 249.174 993.228 249.106C982.919 249.011 979.174 246.288 973.735 238.073L974.844 231.61C979.684 232.902 982.958 232.451 987.308 233.424C996.581 244.32 1017.3 244.019 1030.48 248.296C1037 250.411 1045.31 252.132 1052.08 252.683L1060.68 253.32C1066.53 248.54 1068.47 245.532 1075.47 242.897C1078.42 242.823 1087.96 238.878 1091.28 237.6C1092.7 242.263 1095.57 249.636 1100.64 251.675C1103.22 253.449 1105.82 248.288 1106.83 248.741C1115.15 252.484 1117.36 245.883 1119.8 235.822C1139.01 245.053 1133.68 236.208 1145.17 227.427L1145.81 226.943Z"/><path fill="#381F1D" d="M1050.88 281.106C1048.78 277.34 1044.45 264.295 1049.36 264.764C1059.59 265.742 1068.92 255.687 1071.66 269.198C1063.11 273.352 1058.71 275.815 1050.88 281.106Z"/><path fill="#5F3A37" d="M1113.24 176.317C1117.36 176.081 1122.72 175.578 1126.71 176.08C1136.49 177.316 1152.01 182.034 1159.83 188.055C1157.87 188.873 1157.13 189.131 1155.91 190.89L1154.84 196.185C1150.31 198.767 1142.64 188.077 1136.25 188.841C1135.59 186.84 1135.51 186.561 1133.94 185.176C1128.95 183.761 1129.05 187.392 1125.86 187.784C1126.03 186.719 1126.18 185.652 1126.32 184.584C1126.75 181.161 1126.86 180.523 1124.6 177.788C1121.3 177.921 1119.66 177.935 1116.47 178.691L1113.24 176.317Z"/><path fill="#381F1D" d="M1100.1 178.655C1105.24 176.766 1107.78 176.349 1113.24 176.317L1116.47 178.691C1115.03 179.562 1113.06 180.736 1111.82 181.89C1108.64 184.856 1105.53 191.819 1100.24 190.621C1097.89 190.089 1095.44 187.568 1093.71 185.935C1095.52 181.991 1096.11 180.672 1100.1 178.655Z"/><path fill="#905B58" d="M1110.65 199.877C1112.04 200.87 1112.68 201.113 1113.3 202.611C1111.82 203.36 1111.33 203.666 1110 204.666C1108.68 209.267 1112.24 207.102 1113.34 212.765C1113.97 216.025 1111.62 219.63 1109.9 222.347C1109.62 222.789 1108.83 221.804 1107.41 223.629C1107.57 224.938 1107.88 226.011 1107.38 227.193C1105.81 226.602 1107.15 224.698 1105.25 223.088L1103.85 223.95L1103.17 223.47C1099.76 219.802 1094.62 223.179 1096.47 213.339C1095.24 212.658 1094.45 212.852 1093.02 212.901L1092.42 212.926L1092.71 212.507L1097.08 212.237C1099.26 207.793 1100.38 204.913 1105.98 203.945C1106.87 204.808 1107.03 204.986 1108.1 205.701C1109.28 204.82 1110.12 201.477 1110.65 199.877Z"/><path fill="#E5C3C1" d="M1176.71 102.514C1177.91 92.8579 1187.22 65.0203 1197.12 85.1985C1199.28 82.4805 1202.02 79.7868 1205.75 80.3812C1213.91 84.4006 1209.59 101.967 1207.34 108.564C1220.83 102.66 1228.71 104.138 1238.37 115.093C1232.67 122.927 1234.79 119.293 1237.79 126.52C1237.9 136.146 1217.82 137.203 1210.76 137.495C1215.72 145.539 1214.96 147.392 1213.29 156.443C1209.6 156.968 1208.96 160.387 1202.74 161.136C1202.14 161.67 1201.52 162.169 1201.03 162.788C1192.07 160.8 1188.32 155.873 1184.57 148.031C1180.89 155.608 1167.4 173.478 1156.92 160.918C1152.97 156.178 1144.9 154.866 1146.97 147.948C1149.87 138.259 1160.34 131.982 1168.67 127.147C1155.94 126.703 1146.03 122.228 1142.56 109.044C1142.07 107.165 1141.52 105.889 1142.14 103.975C1143.93 102.543 1146.03 102.717 1148.44 102.541C1148.66 100.656 1149 96.5418 1150.06 95.1862C1156.76 86.618 1171.36 98.5259 1176.71 102.514Z"/><path fill="#905B58" d="M1184.16 115.992C1197.56 116.071 1198.33 121.086 1196.14 132.094C1194.65 133.006 1194.01 133.547 1192.33 133.898C1187.93 133.198 1178.07 137.078 1178.19 128.322C1178.28 121.796 1180.65 120.905 1183.87 116.398L1184.16 115.992Z"/><path fill="#5F3A37" d="M943.077 301.197C946.403 304.856 951.209 301.904 951.6 307.482C949.595 312.597 941.257 314.897 937.25 319.684C933.996 323.572 932.757 326.073 930.219 330.458L924.531 331.646C925.634 327.337 927.223 326.091 930.537 323.221C921.785 324.906 901.358 328.981 893.635 333.719C892.891 331.993 892.131 329.868 890.254 329.36C886.397 328.316 881.527 327.643 877.586 327.902C875.621 329.784 873.29 335.696 871.546 338.649C868.408 340.571 862.461 344.878 858.9 343.062L858.448 341.153C856.684 339.617 855.656 341.081 854.042 339.631L854.739 335.812C852.004 334.349 846.242 334.158 843.692 336.126C838.538 336.591 834.767 333.415 830.858 330.284C823.496 330.109 816.246 329.282 808.982 329.501C806.391 329.579 801.1 332.432 799.489 332.133C782.965 329.065 773.841 334.661 759.864 342.032C756.718 343.69 751.296 342.731 747.946 345.542C747.141 344.109 746.293 342.246 745.552 340.74L746.751 340.014C746.474 338.748 745.093 337.438 743.855 336.699C737.009 332.682 727.557 338.496 720.242 339.844C717.145 340.415 708.979 341.661 706.894 342.647C696.574 347.528 687.42 353.627 675.841 355.595C673.445 356.002 671.063 357.367 669.239 355.235C664.692 351.666 652.425 351.611 650.599 342.888C651.024 340.964 653.017 339.807 654.69 338.463C653.124 336.955 652.491 337.491 651.494 335.391C653.977 328.411 667.996 330.182 673.71 330.811C682.437 334.224 682.649 340.485 690.58 343.776C692.659 344.638 694.811 340.825 696.114 340.621C705.868 338.997 715.358 336.571 725.107 334.868C729.767 334.053 735.061 335.3 737.1 331.12C740.197 330.639 744.875 332.811 749.927 332.344C757.234 331.668 762.67 327.958 769.167 327.093C777.225 326.019 787.981 326.839 796.079 325.079C802.097 323.771 801.122 318.866 809.061 318.264C822.515 317.243 829.062 325.432 843.446 321.783C848.621 320.47 851.883 319.312 856.987 317.49C863.659 319.368 865.737 322.164 871.87 317.505C882.369 319.927 884.782 321.05 895.157 318.233C898.717 317.494 906.016 316.27 908.283 313.743L910.632 305.346L911.065 303.691C915.201 303.892 941.541 303.212 943.077 301.197Z"/><path fill="#E5C3C1" d="M669.239 355.235C664.692 351.666 652.425 351.611 650.599 342.888C651.024 340.964 653.017 339.807 654.69 338.463C653.124 336.955 652.491 337.491 651.494 335.391C653.977 328.411 667.996 330.182 673.71 330.811C675.376 334.781 677.868 337.86 680.39 341.329C677.986 341.882 676.662 341.97 674.903 343.759C674.514 345.495 674.821 345.356 676.044 347.313C677.666 349.91 671.436 352.913 669.239 355.235Z"/><path fill="#E5C3C1" d="M854.739 335.812C857.02 332.23 864.742 321.737 869.573 325.115L870.032 326.416C869.336 327.864 868.796 328.8 867.955 330.17C868.964 332.351 870.183 331.789 870.259 332.269C870.743 335.352 869.709 335.954 871.546 338.649C868.408 340.571 862.461 344.878 858.9 343.062L858.448 341.153C856.684 339.617 855.656 341.081 854.042 339.631L854.739 335.812Z"/><path fill="#381F1D" d="M910.632 305.346C911.979 307.234 912.563 308.564 914.712 309.209C917.16 309.131 918.334 308.331 920.539 307.263C929.758 308.536 933.915 308.044 943.264 307.162C931.246 312.091 921.355 313.999 908.283 313.743L910.632 305.346Z"/><path fill="#381F1D" d="M871.546 338.649C873.29 335.696 875.621 329.784 877.586 327.902C881.527 327.643 886.397 328.316 890.254 329.36C892.131 329.868 892.891 331.993 893.635 333.719C877.844 342.525 861.176 343.958 847.94 354.728C844.017 357.919 839.923 364.899 836.144 369.049C836.186 372.845 836.106 377.176 836.621 380.893C835.088 381.919 832.594 383.475 831.231 384.583C830.179 389.289 830.837 397.623 830.233 399.665C825.829 398.515 822.702 400.322 820.101 395.475C822.23 394.218 826.073 392.764 827.176 391.44C828.203 386.041 830.207 372.723 831.405 368.306C815.305 375.241 791.256 384.013 778.939 395.608C761.772 396.052 743.374 408.211 730.719 419.309C724.925 419.844 721.793 419.634 718.713 425.219L717.193 422.801C703.894 424.334 695.527 430.216 685.262 438.31C681.597 436.479 680.187 433.752 679.567 429.93L683.837 425.057C685.358 425.098 689.333 425.481 690.548 425.267C702.015 423.244 710.579 413.65 720.725 408.899C723.935 407.396 730.171 406.434 733.782 405.402C737.788 404.258 741.097 402.988 744.953 401.498C742.626 400.212 739.654 398.668 738.51 396.253C740.393 391.123 766.423 385.056 770.93 380.281L770.811 379.029C769.101 376.663 768.143 376.182 765.736 374.556C775.351 374.479 783.059 370.258 789.589 369.7C809.104 368.032 806.402 362.441 820.31 352.764C828.864 346.812 840.842 352.182 843.692 336.126C846.242 334.158 852.004 334.349 854.739 335.812L854.042 339.631C855.656 341.081 856.684 339.617 858.448 341.153L858.9 343.062C862.461 344.878 868.408 340.571 871.546 338.649Z"/><defs><linearGradient id="gradient_0" gradientUnits="userSpaceOnUse" x1="692.34369" y1="249.52164" x2="611.73608" y2="157.28822"><stop offset="0" stop-color="#2E1715"/><stop offset="1" stop-color="#5C3835"/></linearGradient></defs><path fill="url(#gradient_0)" d="M594.974 182.275C588.729 174.489 585.723 158.657 602.049 161.194C606.103 161.824 608.587 169.231 610.202 173.098C610.775 177.863 609.81 180.216 608.305 184.798C611.285 190.163 613.979 194.828 617.253 200.013C625.109 201.301 630.101 204.925 636.761 206.881C651.699 211.268 659.543 212.121 673.644 219.707C676.238 219.202 678.851 218.649 681.467 218.296C685.022 214.771 687.561 212.329 692.238 215.982C700.006 222.049 704.949 220.235 713.286 217.119C711.575 215.351 709.054 212.692 707.073 211.332C700.454 206.789 687.836 201.699 684.005 194.65C681.492 189.92 674.226 176.222 680.11 171.326C681.592 170.094 683.643 171.148 685.381 171.656L685.494 168.781L686.248 168.122C695.324 166.954 700.267 176.723 703.776 183.632C704.722 187.848 704.483 195.803 704.43 200.355C707.891 203.868 706.839 203.956 709.092 206.973C712.966 212.161 720.144 219.165 725.616 222.395C722.775 225.445 717.887 225.396 713.846 226.81C710.405 228.014 708.018 228.967 704.764 230.646C695.269 223.548 691.134 224.538 679.422 225.321L674.051 221.849C669.884 222.504 654.737 224.202 653.333 227.389C651.849 230.761 649.663 236.304 645.667 239.465C645.319 245.203 645.649 250.442 642.34 255.137C631.56 270.463 614.253 255.878 629.198 243.456C635.985 238.465 635.318 241.172 641.936 233.012C644.568 232.277 646.642 232.065 648.114 229.839L647.562 228.838C645.099 227.639 642.495 228.16 639.712 228.383C639.478 226.774 639.413 224.027 639.316 222.314C642.433 221.182 645.534 220.009 648.618 218.793C636.127 212.987 616.996 207.246 603.691 202.631C590.3 197.985 585.218 199.412 572.114 190.72L575.192 187.909C578.736 188.64 583.372 187.276 586.043 188.317C596.843 192.527 602.518 196.704 614.258 199.052C607.189 188.324 603.706 189.616 595.527 182.744L594.974 182.275Z"/><path fill="#E5C3C1" d="M684.005 194.65C681.492 189.92 674.226 176.222 680.11 171.326C681.592 170.094 683.643 171.148 685.381 171.656L685.494 168.781L686.248 168.122C695.324 166.954 700.267 176.723 703.776 183.632C703.273 184.622 701.071 188.922 700.534 189.27C694.553 193.142 695.155 189.613 692.45 196.666C689.957 196.005 686.459 194.964 684.005 194.65Z"/><path fill="#E5C3C1" d="M594.974 182.275C588.729 174.489 585.723 158.657 602.049 161.194C606.103 161.824 608.587 169.231 610.202 173.098C608.416 174.678 607.434 175.924 605.129 176.164C603.913 175.747 602.965 175.414 601.786 174.903C599.309 176.816 599.72 177.077 599.883 180.354C598.287 182.323 598.221 181.863 594.974 182.275Z"/><path fill="#E5C3C1" d="M642.34 255.137C631.56 270.463 614.253 255.878 629.198 243.456L634.48 243.297C636.466 245.225 634.808 248.052 636.821 250.714C639.065 250.516 640.184 248.869 641.439 247.047C641.672 249.925 641.872 252.289 642.34 255.137Z"/><path fill="#5F3A37" d="M641.439 247.047C641.35 243.311 642.959 241.575 645.667 239.465C645.319 245.203 645.649 250.442 642.34 255.137C641.872 252.289 641.672 249.925 641.439 247.047Z"/><path fill="#E5C3C1" d="M831.212 190.84C837.121 173.349 840.981 182.854 846.317 177.1C853.444 175.243 856.925 187.949 858.199 192.822C859.843 189.509 861.439 184.514 865.798 185.363C867.488 187.369 867.744 190.147 867.503 192.707C866.503 203.347 861.294 209.687 853.899 216.336C851.442 218.955 845.536 224.886 844.709 228.109L844.943 228.466C841.396 231.174 839.812 232.359 835.414 233.471C833.235 231.834 826.093 231.523 822.605 230.75C806.371 230.562 799.554 221.53 795.562 206.732C800.977 208.948 804.717 211.797 811.109 214.116C808.525 208.651 806.935 205.167 806.588 198.973C806.155 191.252 808.04 183.402 815.874 192.322L819.559 185.738C824.236 187.047 827.065 188.392 831.212 190.84Z"/><path fill="#905B58" d="M843.611 216.29C845.598 212.504 848.919 207.103 852.87 205.21C856.806 205.68 854.041 213.179 853.899 216.336C851.442 218.955 845.536 224.886 844.709 228.109L844.943 228.466C841.396 231.174 839.812 232.359 835.414 233.471C833.235 231.834 826.093 231.523 822.605 230.75C819.162 228.868 814.936 227.109 814.576 222.757C816.886 217.168 825.717 218.971 830.483 219.692C830.473 206.674 837.147 205.507 843.611 216.29Z"/><path fill="#381F1D" d="M971.987 271.958C985.249 270.931 991.661 269.434 1003.48 263.479C1006.68 261.862 1014.78 259.625 1018.46 258.457C1019.68 260.824 1022.4 262.656 1024.63 264.138C1024.31 267.956 1024.07 270.63 1023.35 274.376C1026.29 278.517 1028.72 279.232 1031.76 282.233C1027.42 284.689 1024.5 286.715 1020.44 289.577C1010.07 288.516 999.039 289.291 989.498 293.82C988.72 296.34 988.506 298.571 986.368 299.685C983.777 301.035 976.458 301.074 974.534 302.058C962.84 308.04 949.101 314.901 938.066 321.702C936.626 330.056 932.711 335.814 931.049 344.924C930.952 345.433 930.871 345.945 930.806 346.459C926.037 360.596 910.064 343.515 923.095 337.32C924.854 335.422 924.51 334.332 924.531 331.646L930.219 330.458C932.757 326.073 933.996 323.572 937.25 319.684C941.257 314.897 949.595 312.597 951.6 307.482C951.209 301.904 946.403 304.856 943.077 301.197C947.528 294.285 954.892 293.96 962.864 286.513C969.148 282.895 968.798 278.537 971.745 272.448L971.987 271.958Z"/><path fill="#E5C3C1" d="M930.806 346.459C926.037 360.596 910.064 343.515 923.095 337.32C926.816 343.43 927.542 338.596 930.806 346.459Z"/><path fill="#E5C3C1" d="M1190.3 309.601C1191.71 312.235 1192.68 314.127 1194.44 316.553C1196.47 316.757 1197.23 316.85 1199.25 316.642C1210.5 313.209 1216.69 307.618 1228.76 314.816C1242.8 323.195 1229.78 326.942 1221.17 328.256C1220.53 328.352 1219.9 328.443 1219.27 328.529C1222.92 334.867 1231.75 354.906 1218.03 355.87C1216.3 355.991 1214.3 357.782 1212.98 358.821C1209.23 356.417 1208.08 355.378 1205 352.126C1202.44 359.346 1198.78 372.774 1188.05 369.141C1181.15 366.804 1178.91 348.62 1179.52 342.571L1178.91 342.349C1176.64 343.671 1175.15 345.086 1172.63 344.19C1171.52 340.362 1180.55 323.273 1183.22 319.598C1182.83 318.407 1182.39 318.003 1181.62 317.043C1184.62 314.942 1183.16 312.237 1190.3 309.601Z"/><path fill="#905B58" d="M1190.3 309.601C1191.71 312.235 1192.68 314.127 1194.44 316.553C1196.47 316.757 1197.23 316.85 1199.25 316.642C1203.22 318.248 1207.09 318.348 1209.3 322.009C1208.49 325.516 1201.83 324.532 1199.67 325.986C1195.47 328.813 1197.12 336.482 1191.23 336.699C1188.72 335.632 1188.07 334.801 1186.19 332.921C1184.88 334.771 1179.74 341.13 1179.52 342.571L1178.91 342.349C1176.64 343.671 1175.15 345.086 1172.63 344.19C1171.52 340.362 1180.55 323.273 1183.22 319.598C1182.83 318.407 1182.39 318.003 1181.62 317.043C1184.62 314.942 1183.16 312.237 1190.3 309.601Z"/><path fill="#5F3A37" d="M1190.3 309.601C1191.71 312.235 1192.68 314.127 1194.44 316.553C1191.52 318.118 1186.39 321.403 1183.22 319.598C1182.83 318.407 1182.39 318.003 1181.62 317.043C1184.62 314.942 1183.16 312.237 1190.3 309.601Z"/><path fill="#E5C3C1" d="M1019.39 75.5273C1026.44 85.8145 1025.68 89.8489 1025.55 102.241C1025.45 107.957 1025.54 109.534 1024.08 115.007C1022.64 120.413 1016.93 125.423 1016.45 128.825C1013.35 129.483 1005.92 131.234 1003.11 131.539C1001.46 130.632 997.56 129.754 995.613 129.244C987.919 127.227 983.177 125.651 976.46 121.219C971.479 118.265 962.821 108.926 963.18 102.764C964.21 101.251 965.575 101.467 967.892 100.977C966.995 99.2027 966.026 97.905 966.304 96.0362C970.848 92.343 980.641 96.8895 985.456 98.9538C985.559 94.2279 985.1 88.9265 988.474 85.2771C997.061 75.992 1006.95 85.0685 1013.33 90.8223C1015.23 85.6776 1017.25 80.5779 1019.39 75.5273Z"/><path fill="#905B58" d="M1006.04 118.487C1008.09 114.386 1011.22 108.62 1015.31 106.411C1017.8 106.311 1016.8 106.091 1019.22 107.731C1020.99 107.37 1024.01 103.788 1025.55 102.241C1025.45 107.957 1025.54 109.534 1024.08 115.007C1022.64 120.413 1016.93 125.423 1016.45 128.825C1013.35 129.483 1005.92 131.234 1003.11 131.539C1001.46 130.632 997.56 129.754 995.613 129.244C987.919 127.227 983.177 125.651 976.46 121.219C981.879 119.577 987.494 121.781 992.718 123.416C993.908 112.449 997.992 111.144 1006.04 118.487Z"/><path fill="#E5C3C1" d="M820.101 395.475C822.702 400.322 825.829 398.515 830.233 399.665C830.862 402.802 833.032 405.512 834.86 408.183C842.256 416.54 847.416 427.145 841.837 438.254C840.109 441.694 834.864 447.004 831.22 448.095C829.386 447.424 829.68 447.082 828.527 445.021C817.945 443.513 817.147 438.535 815.278 429.356C810.085 435.105 794.146 448.508 786.577 438.432C786.032 437.707 786.555 435.483 785.37 433.727C783.725 433.434 783.328 433.321 781.761 432.737C776.933 424.207 791.502 409.286 798.473 405.33C807.145 399.437 816.155 398.619 820.101 395.475Z"/><path fill="#905B58" d="M820.101 395.475C822.702 400.322 825.829 398.515 830.233 399.665C830.862 402.802 833.032 405.512 834.86 408.183C835.695 413.328 835.627 416.5 835.626 421.67C829.748 418.898 828.561 417.447 825.542 411.862C823.569 414.432 821.743 417.099 818.666 418.226C813.616 417.809 814.063 413.3 813.549 408.997C806.516 408.688 804.627 408.784 798.473 405.33C807.145 399.437 816.155 398.619 820.101 395.475Z"/><path fill="#5F3A37" d="M1246.9 176.524C1258.85 181.768 1267.62 178.185 1280 175.345L1280 191.062L1280 212.835C1275.65 219.358 1271.51 226.815 1262.96 219.919C1247.77 220.816 1248.19 229.426 1233.07 223.192C1230.69 223.645 1226.08 224.395 1223.96 225.105C1224.46 218.878 1229.18 203.935 1227.38 198.249C1231.82 198.199 1243.93 198.103 1246.01 193.88C1244.66 189.617 1239.8 190.126 1236.04 189.984C1237.13 187.868 1238.21 185.657 1239.74 183.82C1241.92 181.194 1245.48 179.529 1246.9 176.524Z"/><path fill="#381F1D" d="M1252.42 208.029C1260.84 193.196 1263.39 193.345 1280 191.062L1280 212.835C1275.65 219.358 1271.51 226.815 1262.96 219.919C1261.97 218.482 1254.67 210.829 1252.42 208.029Z"/><path fill="#E5C3C1" d="M749.83 263.02C739.568 253.463 741.095 247.32 755.879 247.239C765.494 247.186 772.542 251.42 779.1 258.13C781.781 260.437 788.588 266.629 791.315 267.853C789.93 270.973 791.745 275.558 793.715 278.151C789.355 281 789.113 285.314 786.758 289.506C781.104 301.446 771.593 308.338 758.259 305.602L763.752 298.237C747.881 288.185 735.011 282.027 749.83 263.02Z"/><path fill="#905B58" d="M779.1 258.13C781.781 260.437 788.588 266.629 791.315 267.853C789.93 270.973 791.745 275.558 793.715 278.151C789.355 281 789.113 285.314 786.758 289.506C783.922 291.731 781.277 294.913 777.62 293.72C776.163 290.575 778.23 287.574 779.625 284.649C775.377 284.807 770.778 285.329 768.182 281.266C766.496 274.746 774.374 271.903 779.032 270.019C777.887 268.677 776.814 267.276 775.818 265.821C774.166 263.385 774.167 262.693 774.656 260.233C776.554 258.383 776.258 258.884 779.1 258.13Z"/><path fill="#E5C3C1" d="M881.194 267.009C881.785 265.601 881.86 263.354 882.666 261.932C887.573 253.281 899.853 256.703 906.72 260.627C905.931 263.848 906.596 263.018 904.538 264.701C901.461 265.26 899.374 264.583 898.317 266.032C898.062 272.576 905.585 278.254 905.852 284.323C905.228 287.05 906.292 291.006 907.114 293.689C907.975 295.787 910.6 301.806 911.065 303.691L910.632 305.346L908.283 313.743C906.016 316.27 898.717 317.494 895.157 318.233C884.782 321.05 882.369 319.927 871.87 317.505C859.073 307.291 873.41 304.246 882.342 300.672C880.933 297.634 878.978 294.48 877.782 291.78C876.18 288.165 878.147 279.773 880.043 276.333C883.088 271.501 882.379 272.386 881.194 267.009Z"/><path fill="#905B58" d="M907.114 293.689C907.975 295.787 910.6 301.806 911.065 303.691L910.632 305.346L908.283 313.743C906.016 316.27 898.717 317.494 895.157 318.233C892.987 316.741 892.588 317.009 891.82 314.847C892.764 312.925 895.562 311.833 897.623 310.716C893.834 309.072 889.324 306.995 887.649 303.029C888.679 296.661 900.373 299.2 904.882 299.786L907.114 293.689Z"/><defs><linearGradient id="gradient_1" gradientUnits="userSpaceOnUse" x1="584.83612" y1="469.54578" x2="557.16266" y2="410.46667"><stop offset="0" stop-color="#2D1B19"/><stop offset="1" stop-color="#502A27"/></linearGradient></defs><path fill="url(#gradient_1)" d="M503.899 455.486C498.275 452.58 475.04 449.649 485.893 437.442C484.457 425.479 500.582 427.231 507.717 430.153C516.57 434.201 517.52 437.852 523.175 441.197C532.225 446.549 556.935 445.898 567.041 442.797C568.626 442.311 570.758 440.554 572.047 439.487C578.777 439.154 585.453 438.842 592.193 438.763C597.209 438.704 602.682 439.182 607.615 438.682C611.45 435.565 613.192 434.658 618.113 433.859L618.547 432.992C624.152 439.7 635.212 442.305 643.626 441.951L648.202 443.161C634.216 444.386 624.285 443.913 610.317 441.651C607.64 442.785 604.937 443.911 602.276 445.078L596.646 442.079C586.42 443.209 568.956 446.522 561.851 454.266L561.048 452.991L562.136 450.747L561.63 449.98C558.269 450.076 554.728 454.473 552.612 455.298C548.057 457.077 543.508 455.52 539.73 459.86C538.195 461.623 535.503 465.082 533.509 464.507C533.635 464.544 530.914 464.481 530.775 464.476L528.652 460.423C533.644 457.567 535.353 456.144 538.904 451.623C521.577 442.211 515.41 457.449 503.899 455.486Z"/><path fill="#E5C3C1" d="M503.899 455.486C498.275 452.58 475.04 449.649 485.893 437.442C484.457 425.479 500.582 427.231 507.717 430.153C509.595 434.963 512.013 438.026 515.015 442.186C512.401 442.639 509.84 442.804 507.773 444.397L507.612 445.456C509.048 447.161 510.775 447.458 512.951 448.189C509.614 450.492 506.557 452.377 503.899 455.486Z"/><path fill="#5F3A37" d="M1056.91 144.122C1054.49 138.463 1048.07 122.91 1054.75 117.241C1056.63 115.651 1059.45 117.305 1061.87 117.708C1062.78 115.773 1062.87 115.038 1064.65 114.146C1073.12 113.264 1078.25 126.507 1080.95 132.933L1081.09 133.557C1081.78 136.702 1081.61 141.175 1081.12 144.37C1078.6 160.883 1083.41 172.122 1100.1 178.655C1096.11 180.672 1095.52 181.991 1093.71 185.935C1088.31 182.567 1084.9 182.393 1078.76 182.688C1073.12 182.519 1069.72 179.577 1065.56 176.277C1053.49 176.405 1050.41 172.747 1040.49 172.347C1041.01 169.632 1041.58 166.93 1042.22 164.242C1046.06 166.79 1050.72 165.602 1055.21 165.018C1057.92 166.328 1061.55 168.785 1064.18 170.455C1068.32 170.604 1075.77 171.203 1078.69 167.669C1079.01 165.355 1078.69 164.288 1076.86 162.55C1070.67 156.682 1061.92 152.038 1057.28 144.717L1056.91 144.122Z"/><path fill="#E5C3C1" d="M1056.91 144.122C1054.49 138.463 1048.07 122.91 1054.75 117.241C1056.63 115.651 1059.45 117.305 1061.87 117.708C1062.78 115.773 1062.87 115.038 1064.65 114.146C1073.12 113.264 1078.25 126.507 1080.95 132.933C1079.72 136.372 1078.59 139.843 1077.55 143.341C1076 141.884 1074.42 139.97 1072.47 139.639C1070.7 140.794 1070.31 141.286 1068.19 141.125C1066.55 139.84 1065.89 139.226 1063.97 138.329C1059.58 139.636 1063.41 141.267 1061.18 144.544C1059.37 145.016 1058.8 144.66 1056.91 144.122Z"/><path fill="#381F1D" d="M911.532 118.618C908.977 116.247 906.661 114.171 905.912 110.625C912.248 111.585 918.67 128.316 924.954 131.595C929.69 134.066 935.082 134.954 940.284 136.183C947.368 143.859 952.33 146.149 961.477 150.818C959.598 154.188 955.315 156.118 954.774 158.081L955.061 158.441C939.626 161.499 924.416 154.481 912.586 166.353C910.99 171.816 905.192 182.029 897.302 181.264C893.7 180.994 894.712 177.175 894.801 177.261C890.976 173.558 890.967 173.111 892.132 167.001C894.586 164.446 899.582 161.069 902.601 158.884C891.822 159.365 882.971 153.578 872.737 151.955C862.071 150.264 856.133 151.647 846.126 146.355C852.581 146.795 856.544 146.357 862.726 145.306L870.573 148.829C862.579 138.072 860.342 141.333 851.163 133.226C849.954 132.158 849.766 131.007 849.884 129.556C858.089 128.502 877.15 151.162 883.523 153.169C890.589 155.394 913.766 154.863 922.411 157.245C926.309 158.319 930.008 153.302 932.101 150.504C935.622 151.887 945.283 156.189 947.894 152.633C947.43 145.528 937.816 145.243 932.831 141.843C931.738 141.098 929.876 138.164 929.086 136.952C923.117 135.048 913.097 132.977 910.381 126.753C909.102 123.823 910.413 121.373 911.532 118.618Z"/><path fill="#E5C3C1" d="M902.601 158.884C904.755 158.516 905.623 158.323 907.846 158.462C910.621 161.541 907.693 164.311 909.492 167.216C911.086 167.27 911.23 167.105 912.586 166.353C910.99 171.816 905.192 182.029 897.302 181.264C893.7 180.994 894.712 177.175 894.801 177.261C890.976 173.558 890.967 173.111 892.132 167.001C894.586 164.446 899.582 161.069 902.601 158.884Z"/><path fill="#E5C3C1" d="M631.381 397.566C633.991 398.251 636.293 398.867 638.721 400.078C642.785 402.104 648.457 408.122 652.53 408.953C658.024 412.142 660.471 415.187 662.471 421.367C662.949 422.844 663.202 425.302 663.914 426.492C661.987 428.287 659.613 430.06 658.967 432.54C659.059 434.203 659.04 434.113 659.918 435.535C654.539 436.002 652.838 436.911 648.084 439.543C646.827 440.214 644.762 441.229 643.626 441.951C635.212 442.305 624.152 439.7 618.547 432.992L620.021 430.705C623.577 428.242 630.075 429.294 634.511 429.556C630.46 427.316 616.956 419.689 622.868 413.201C626.236 409.505 635.237 410.005 640.1 409.981C636.456 406.252 633.995 402.008 631.381 397.566Z"/><path fill="#905B58" d="M652.53 408.953C658.024 412.142 660.471 415.187 662.471 421.367C662.949 422.844 663.202 425.302 663.914 426.492C661.987 428.287 659.613 430.06 658.967 432.54C659.059 434.203 659.04 434.113 659.918 435.535C654.539 436.002 652.838 436.911 648.084 439.543C645.461 438.093 641.509 437.789 640.661 434.486C642.482 432.152 645.841 432.359 648.049 430.819C649.926 429.51 646.561 428.395 646.941 424.537C648.05 422.899 649.944 422.652 651.969 422.031C652.743 420.144 652.493 411.77 652.53 408.953Z"/><path fill="#5F3A37" d="M663.914 426.492C668.631 432.249 672.401 436.465 679.567 429.93C680.187 433.752 681.597 436.479 685.262 438.31C676.027 443.699 667.661 449.389 664.431 460.206C654.624 465.234 648.428 472.028 642.079 481.125C640.729 483.059 638.856 488.862 637.565 490.026C628.694 498.02 619.031 506.032 610.195 514.034C608.298 519.948 608.326 521.656 609.058 527.857C602.312 537.708 598.447 544.265 589.564 552.405C591.3 547.635 600.124 534.467 599.777 530.38C599.238 524.034 600.949 523.763 605.022 519.646C604.97 517.024 605.583 511.683 604.96 510.119C602.675 509.57 598.187 512.021 596.19 513.387C595.183 509.617 594.512 509.949 591.15 508.967C595.043 508.952 603.035 509.744 605.042 505.949C608.547 499.324 627.232 496.811 629.452 489.976C629.228 489.562 628.05 487.526 628.378 487.135C640.168 473.082 659.242 467.457 660.078 446.472C662.467 445.004 665.563 443.343 667.302 441.241C662.55 441.565 651.822 443.489 648.202 443.161L643.626 441.951C644.762 441.229 646.827 440.214 648.084 439.543C652.838 436.911 654.539 436.002 659.918 435.535C659.04 434.113 659.059 434.203 658.967 432.54C659.613 430.06 661.987 428.287 663.914 426.492Z"/><path fill="#381F1D" d="M659.918 435.535C662.368 435.746 666.669 435.486 668.206 436.315C668.612 438.14 668.193 439.436 667.302 441.241C662.55 441.565 651.822 443.489 648.202 443.161L643.626 441.951C644.762 441.229 646.827 440.214 648.084 439.543C652.838 436.911 654.539 436.002 659.918 435.535Z"/><path fill="#5F3A37" d="M725.616 222.395C731.331 225.313 735.886 224.213 742.098 225.814C747.742 227.469 751.202 232.337 756.751 234.356C761.44 236.061 790.692 239.951 792.864 241.793C804.635 251.772 811.568 244.052 821.21 249.074C824.284 248.396 831.226 237.163 838.273 246.821C836.137 248.011 835.491 247.941 834.293 249.854C834.417 251.992 834.714 252.464 835.503 254.506L835.192 256.428C819.66 258.058 800.575 249.392 785.105 247.435C771.191 245.675 763.489 244.521 749.889 240.272C741.803 237.745 731.087 238.074 722.108 234.643C716.76 232.599 711.478 234.117 704.764 230.646C708.018 228.967 710.405 228.014 713.846 226.81C717.887 225.396 722.775 225.445 725.616 222.395Z"/><path fill="#E5C3C1" d="M821.21 249.074C824.284 248.396 831.226 237.163 838.273 246.821C836.137 248.011 835.491 247.941 834.293 249.854C834.417 251.992 834.714 252.464 835.503 254.506C831.132 254.541 823.544 253.289 821.21 249.074Z"/><path fill="#381F1D" d="M835.414 233.471C839.812 232.359 841.396 231.174 844.943 228.466C847.486 231.803 847.004 232.841 846.58 237.017C854.018 244.647 861.056 252.004 866.821 261.013C867.718 262.415 868.803 264.155 869.813 265.42C873.118 265.875 878.033 266.379 881.194 267.009C882.379 272.386 883.088 271.501 880.043 276.333C860.686 275.599 857.91 265.004 839.737 270.041C825.105 265.697 812.925 269.069 798.952 274.517C797.388 275.126 795.28 277.234 793.715 278.151C791.745 275.558 789.93 270.973 791.315 267.853C799.49 267.57 805.155 264.371 813.516 265.137C816.017 265.366 820.608 264.262 823.228 263.668L827.15 258.77C835.465 262.247 840.148 261.728 848.887 260.284C843.094 257.274 841.682 256.016 835.192 256.428L835.503 254.506C834.714 252.464 834.417 251.992 834.293 249.854C835.491 247.941 836.137 248.011 838.273 246.821C842.176 251.98 853.592 260.673 860.306 260.26L860.856 259.51C858.261 254.215 850.723 256.484 847.211 252.809C844.328 249.133 844.257 243.525 843.235 239.171C843.056 238.406 837.877 237.025 835.414 233.471Z"/><path fill="#381F1D" d="M1003.11 131.539C1005.92 131.234 1013.35 129.483 1016.45 128.825C1016.67 132.194 1016.57 133.56 1016.21 136.942C1019.99 142.755 1021.85 142.895 1027.09 147.005L1028.5 153.905C1031.03 156.783 1033.62 159.739 1037 161.659C1039 162.795 1040.29 162.857 1042.22 164.242C1041.58 166.93 1041.01 169.632 1040.49 172.347C1017.86 173.31 1025.11 195.237 1016.72 204.835C1012.52 206.847 1006.42 213.472 1000.64 210.34C998.605 205.908 1001.85 196.581 1003.44 191.999C1009.84 184.97 1019.53 183.511 1028.71 172.726C1031.69 167.943 1031.37 168.572 1029.02 163.347C1025.43 157.17 1022.43 160.147 1019.71 154.963C1016.07 148.008 1013.57 146.515 1011.33 138.815C1006.61 136.407 1005.8 136.027 1003.11 131.539Z"/><path fill="#E5C3C1" d="M1003.44 191.999C1005.85 191.85 1007.7 191.489 1009.88 192.417C1010.29 193.724 1010.11 194.405 1009.98 195.751C1010.9 197.522 1011.06 197.685 1012.82 198.615C1013.66 198.475 1014.39 198.322 1015.21 198.567C1016.23 200.811 1016.36 202.439 1016.72 204.835C1012.52 206.847 1006.42 213.472 1000.64 210.34C998.605 205.908 1001.85 196.581 1003.44 191.999Z"/><path fill="#381F1D" d="M982.535 343.151C986.341 342.508 990.013 341.112 993.22 343.562C990.525 348.552 989.335 352.59 986.49 357.456C984.501 360.859 979.207 365.38 978.172 367.917C972.473 381.873 976.03 389.089 965.435 401.267C966.695 395.122 971.653 379.275 969.177 374.773C961.844 372.412 960.062 382.039 956.494 384.839C946.503 392.681 938.481 397.053 932.782 409.138C931.814 408.466 930.23 406.673 929.363 405.756C930.826 403.402 933.995 399.966 935.904 397.759L934.297 390.906C949.225 380.838 956.329 377.816 965.752 362.081C980.192 356.931 975.271 346.521 982.535 343.151Z"/><defs><linearGradient id="gradient_2" gradientUnits="userSpaceOnUse" x1="490.38284" y1="505.20126" x2="481.30716" y2="477.50702"><stop offset="0" stop-color="#442B28"/><stop offset="1" stop-color="#6D423E"/></linearGradient></defs><path fill="url(#gradient_2)" d="M528.652 460.423L530.775 464.476C528.945 465.687 525.807 467.891 523.907 468.818C517.017 471.146 510.47 483.989 505.08 486.593C491.389 493.208 483.368 490.181 475.496 506C471.871 513.286 462.671 513.934 455.778 516.057C452.838 516.963 444.914 523.133 441.598 521.405C442.985 513.047 462.02 511.451 467.911 507.514C470.564 505.742 470.955 505.322 473.235 502.945C473.943 500.337 475.93 494.931 475.349 492.769C472.547 490.553 462.887 493.208 460.357 489.961C463.564 485.256 485.273 484.84 490.69 483.94C496.935 482.903 510.237 471.419 513.856 466.34C520.582 464.633 522.713 463.995 528.652 460.423Z"/><path fill="#E5C3C1" d="M951.74 239.678C949.358 237.836 944.032 237.571 941.361 235.763C932.548 229.796 939.717 225.699 943.364 220.453C942.794 218.432 942.071 217.004 942.844 215.176C947.063 209.839 958.324 212.658 963.479 215.678C966.65 219.238 968.668 223.856 970.875 228.149C972.837 229.201 973.86 229.544 974.844 231.61L973.735 238.073C961.407 234.846 956.563 241.944 951.74 239.678Z"/><path fill="#381F1D" d="M963.479 215.678C966.65 219.238 968.668 223.856 970.875 228.149C972.837 229.201 973.86 229.544 974.844 231.61L973.735 238.073C961.407 234.846 956.563 241.944 951.74 239.678C951.63 233.851 953.78 233.815 958.886 231.875C956.636 229.517 955.175 227.946 954.868 224.689C956.434 220.721 959.941 222.401 963.212 223.455C963.525 222.566 963.41 217.269 963.479 215.678Z"/><path fill="#5F3A37" d="M963.479 215.678C966.65 219.238 968.668 223.856 970.875 228.149C967.423 227.369 965.885 225.721 963.212 223.455C963.525 222.566 963.41 217.269 963.479 215.678Z"/><path fill="#5F3A37" d="M929.363 405.756C930.23 406.673 931.814 408.466 932.782 409.138C933.519 413.51 933.238 444.806 930.692 446.276C924.77 443.695 928.554 426.213 926.7 421.697C924.226 421.867 923.286 426.271 922.147 427.891C917.651 434.283 907.831 440.412 901.348 446.046C896.73 463.23 901.937 462.308 885.696 477.195C887.916 470.063 890.319 464.805 893.31 458.004C889.733 459.602 883.711 462.583 879.947 460.695L879.559 459.474C881.669 454.79 894.449 448.653 899.428 443.482C907.037 435.577 924.516 414.425 929.363 405.756Z"/><path fill="#E5C3C1" d="M716.588 434.678C718.994 442.751 722.718 456.283 722.523 464.598C721.204 470.518 719.445 476.791 714.203 480.434C709.607 483.628 703.32 482.832 700.687 477.604C697.166 470.614 700.588 462.603 702.689 455.692C706.085 447.668 714.864 448.554 715.113 435.044L716.588 434.678Z"/><path fill="#381F1D" d="M716.588 434.678C718.994 442.751 722.718 456.283 722.523 464.598C719.102 462.206 719.974 461.302 717.863 458.174C717.258 457.278 714.465 458.264 712.438 458.427C710.285 457.049 710.598 455.574 708.638 452.953C706.364 454.317 705.267 454.913 702.689 455.692C706.085 447.668 714.864 448.554 715.113 435.044L716.588 434.678Z"/><path fill="#5F3A37" d="M961.477 150.818L971.274 156.937C981.404 156.986 1019.75 160.287 1029.02 163.347C1031.37 168.572 1031.69 167.943 1028.71 172.726C1017.23 167.002 995.642 167.775 982.532 166.005C972.059 164.591 964.483 159.711 955.061 158.441L954.774 158.081C955.315 156.118 959.598 154.188 961.477 150.818Z"/><path fill="#381F1D" d="M1201.03 162.788C1201.52 162.169 1202.14 161.67 1202.74 161.136C1208.96 160.387 1209.6 156.968 1213.29 156.443C1218.15 159.34 1221.37 161.261 1225.37 165.282C1227.38 167.307 1230.11 170.459 1232.2 172.03C1238.08 173.025 1242.51 172.731 1246.9 176.524C1245.48 179.529 1241.92 181.194 1239.74 183.82C1238.21 185.657 1237.13 187.868 1236.04 189.984C1227.95 187.216 1228.91 181.903 1223.41 178.978C1212.03 172.926 1209.44 173.083 1201.03 162.788Z"/><path fill="#381F1D" d="M906.72 260.627C917.724 271.382 916.322 266.962 927.903 273.001C933.258 272.306 938.287 272.315 943.674 272.582C944.174 279.714 944.305 280.071 948.507 285.864C940.01 286.888 930.543 281.668 921.973 278.821C918.008 279.798 909.914 282.887 905.852 284.323C905.585 278.254 898.062 272.576 898.317 266.032C899.374 264.583 901.461 265.26 904.538 264.701C906.596 263.018 905.931 263.848 906.72 260.627Z"/><path fill="#E5C3C1" d="M729.903 346.159C737.142 344.539 738.896 343.769 745.552 340.74C746.293 342.246 747.141 344.109 747.946 345.542C744.273 350.354 743.283 353.765 741.175 359.441C737.116 363.371 730.298 370.507 723.858 369.052C718.988 367.953 717.207 361.575 718.962 357.321C720.125 354.501 722.845 351.754 725.617 350.381L729.903 346.159Z"/><path fill="#381F1D" d="M729.903 346.159C737.142 344.539 738.896 343.769 745.552 340.74C746.293 342.246 747.141 344.109 747.946 345.542C744.273 350.354 743.283 353.765 741.175 359.441C738.027 357.561 736.448 358.768 734.095 356.566C733.583 354.597 734.686 352.647 735.474 350.612C732.182 350.711 728.907 350.524 725.617 350.381L729.903 346.159Z"/><path fill="#381F1D" d="M544.606 162.02C549.294 163.49 552.054 164.601 556.26 167.118L559.805 173.089C569.496 177.799 570.023 178.411 575.192 187.909L572.114 190.72C564.683 186.175 556.766 181.701 547.917 182.613C538.637 183.569 536.033 182.526 527.826 179.818C525.061 178.906 519.145 179.657 515.232 178.335L515.026 177.512C517.569 174.277 532.511 174.891 536.798 175.327C542.149 175.873 554.032 180.323 559.038 177.649L559.056 176.502C557.597 174.573 555.422 173.867 553.205 172.892C550.56 166.669 549.607 166.334 544.606 162.02Z"/><path fill="#E5C3C1" d="M578.709 508.077C583 507.348 586.862 508.207 591.15 508.967C594.512 509.949 595.183 509.617 596.19 513.387C594.092 514.929 586.853 520.43 584.877 521.473C579.14 524.298 569.285 528.305 567.928 518.448C567.783 517.39 566.777 516.843 565.96 516.091C564.611 511.573 575.487 508.937 578.709 508.077Z"/><path fill="#381F1D" d="M578.709 508.077C583 507.348 586.862 508.207 591.15 508.967C594.512 509.949 595.183 509.617 596.19 513.387C594.092 514.929 586.853 520.43 584.877 521.473C585.347 519.344 585.523 518.996 585.26 516.887C583.223 516.206 582.921 516.125 581.576 514.474C581.829 513.693 582.216 513.01 582.622 512.299C581.624 509.788 581.137 510.016 578.709 508.077Z"/><path fill="#5F3A37" d="M639.316 222.314C639.413 224.027 639.478 226.774 639.712 228.383C635.318 229.092 634.226 229.157 629.849 228.533C614.991 236.342 602.367 229.208 590.669 236.511C587.535 234.429 583.106 234.626 579.087 234.208C592.666 224.309 598.264 228.582 613.567 226.941C622.009 226.036 630.304 222.793 639.316 222.314Z"/><path fill="#5F3A37" d="M943.674 272.582C951.46 270.916 963.889 271.637 971.987 271.958L971.745 272.448C968.798 278.537 969.148 282.895 962.864 286.513C956.777 287.452 954.482 285.032 948.507 285.864C944.305 280.071 944.174 279.714 943.674 272.582Z"/><path fill="#381F1D" d="M568.224 236.331C572.017 235.72 575.349 235.023 579.087 234.208C583.106 234.626 587.535 234.429 590.669 236.511C586.807 240.349 575.9 251.845 570.66 252.72L569.877 251.987C570.187 249.732 580.464 241.836 583.486 238.796C573.558 239.094 563.535 239.678 553.627 239.608C554.764 239.616 541.497 236.341 542.055 236.645L542.3 236.016C546.551 233.27 562.836 234.068 567.466 236.008L568.224 236.331Z"/><path fill="#381F1D" d="M539.81 470.932C548.168 463.791 553.032 462.388 561.048 452.991L561.851 454.266C556.348 461.836 554.228 464.4 550.881 473.085C545.828 493.233 529.185 480.048 539.81 470.932Z"/><path fill="#E5C3C1" d="M550.881 473.085C545.828 493.233 529.185 480.048 539.81 470.932C547.399 472.477 543.481 475.29 547.726 475.513L550.881 473.085Z"/><path fill="#5F3A37" d="M1137.73 320.795C1139.8 321.695 1140.37 322.038 1142.63 322.328C1143.25 328.127 1144.66 331.44 1146.71 336.847C1144.92 341.365 1142.47 344.338 1137.57 341.049C1136.46 339.182 1136.19 338.997 1136.34 336.948L1138.89 330.756C1138.33 327.586 1137.51 323.952 1137.73 320.795Z"/><path fill="#E5C3C1" d="M1136.34 336.948C1141.33 335.307 1142.03 333.899 1146.71 336.847C1144.92 341.365 1142.47 344.338 1137.57 341.049C1136.46 339.182 1136.19 338.997 1136.34 336.948Z"/><path fill="#5F3A37" fill-opacity="0.93725491" d="M717.193 422.801L718.713 425.219C717.534 428.697 716.487 430.973 716.588 434.678L715.113 435.044C715.526 430.398 716.212 427.323 717.193 422.801Z"/></svg>